<svg viewBox="-5.76 -5.76 29.52 29.52" xmlns="http://www.w3.org/2000/svg" fill="#000000"
    transform="rotate(0)matrix(1, 0, 0, 1, 0, 0)">
    <g id="SVGRepo_bgCarrier" stroke-width="0">
        <rect x="-5.76" y="-5.76" width="29.52" height="29.52" rx="14.76" fill="#ffffff"
            strokewidth="0"></rect>
    </g>
    <g id="SVGRepo_tracerCarrier" stroke-linecap="round" stroke-linejoin="round"></g>
    <g id="SVGRepo_iconCarrier">
        <path fill="#000000"
            d="M14 10a3.71 3.71 0 0 0-.67.06l-2.29-2.43 3.61-4.86a1.99 1.99 0 0 0-.5-2.77L9 5.47 3.85 0a1.99 1.99 0 0 0-.5 2.77l3.61 4.86-2.29 2.43A3.71 3.71 0 0 0 4 10a4 4 0 1 0 4 4 3.86 3.86 0 0 0-.4-1.73L9 10.38l1.4 1.89A3.86 3.86 0 0 0 10 14a4 4 0 1 0 4-4zM4 16a2 2 0 1 1 2-2 2.006 2.006 0 0 1-2 2zm10 0a2 2 0 1 1 2-2 2.006 2.006 0 0 1-2 2z"></path>
    </g>
</svg>